<?xml version="1.0" encoding="utf-8"?>
<!-- Generator: Adobe Illustrator 19.2.1, SVG Export Plug-In . SVG Version: 6.00 Build 0)  -->
<svg version="1.1" id="layer" xmlns="http://www.w3.org/2000/svg" xmlns:xlink="http://www.w3.org/1999/xlink" x="0px" y="0px"
	 viewBox="0 0 652 652" style="enable-background:new 0 0 652 652;" xml:space="preserve">
<g>
	<path d="M529.2,282.1c-14.1,0-25.5-11.4-25.5-25.5c0-14.1,11.4-25.5,25.5-25.5c14.1,0,25.5,11.4,25.5,25.5
		C554.7,270.7,543.3,282.1,529.2,282.1"/>
	<path d="M529.2,347.7c-14.1,0-25.5-11.4-25.5-25.5c0-14.1,11.4-25.5,25.5-25.5c14.1,0,25.5,11.4,25.5,25.5
		C554.7,336.2,543.3,347.7,529.2,347.7"/>
	<path d="M594.9,347.7c-14.1,0-25.5-11.4-25.5-25.5c0-14.1,11.4-25.5,25.5-25.5c14.1,0,25.5,11.4,25.5,25.5
		C620.5,336.2,609,347.7,594.9,347.7"/>
	<path d="M529.2,413.2c-14.1,0-25.5-11.4-25.5-25.5c0-14.1,11.4-25.5,25.5-25.5c14.1,0,25.5,11.4,25.5,25.5
		C554.7,401.8,543.3,413.2,529.2,413.2"/>
	<path d="M463.4,413.2c-14.1,0-25.5-11.4-25.5-25.5c0-14.1,11.4-25.5,25.5-25.5c14.1,0,25.5,11.4,25.5,25.5
		C488.9,401.8,477.5,413.2,463.4,413.2"/>
	<path d="M463.4,282.1c-14.1,0-25.5-11.4-25.5-25.5c0-14.1,11.4-25.5,25.5-25.5c14.1,0,25.5,11.4,25.5,25.5
		C488.9,270.7,477.5,282.1,463.4,282.1"/>
	<path d="M463.4,347.7c-14.1,0-25.5-11.4-25.5-25.5c0-14.1,11.4-25.5,25.5-25.5c14.1,0,25.5,11.4,25.5,25.5
		C488.9,336.2,477.5,347.7,463.4,347.7"/>
	<path d="M348.3,362.7c-2.9-4.5-6.8-8.1-11.6-10.8c3.6-2.4,6.5-5.5,8.7-9.1c2.2-3.6,3.3-8,3.3-13.2c0-4.6-0.9-8.7-2.6-12.4
		c-1.7-3.7-4.1-6.9-7.1-9.6c-3-2.7-6.6-4.7-10.8-6.1c-4.2-1.4-8.8-2.2-13.8-2.2h-55v111.6h58.2c5.2,0,10-0.8,14.3-2.3
		c4.3-1.5,8-3.7,11.1-6.5c3.1-2.8,5.5-6.1,7.2-10s2.6-8.3,2.6-13.1C352.7,372.5,351.2,367.1,348.3,362.7 M280.1,316.7h32.7
		c4.8,0,8.5,1.1,11.2,3.4c2.6,2.3,4,5.7,4,10.1c0,4.5-1.3,8-4,10.5c-2.7,2.5-6.4,3.8-11.2,3.8h-32.7V316.7z M328.2,389
		c-2.5,2.8-6.6,4.2-12.2,4.2h-35.9v-31.1H316c5.5,0,9.6,1.6,12.1,4.7c2.6,3.1,3.8,6.9,3.8,11.2C331.9,382.6,330.7,386.2,328.2,389"
		/>
	<path d="M218.2,409.8c5.7-2.2,10.6-5.3,14.6-9.2c4-3.9,7-8.5,9.2-13.7c2.1-5.3,3.2-10.9,3.2-16.8v-70.9h-20.7v70.9
		c0,4-0.6,7.6-1.8,10.8c-1.2,3.1-2.9,5.8-5.2,8c-2.2,2.2-4.9,3.9-8,5c-3.1,1.2-6.6,1.7-10.4,1.7c-3.8,0-7.3-0.6-10.4-1.7
		c-3.1-1.2-5.8-2.8-8.1-5c-2.2-2.2-4-4.8-5.2-8c-1.2-3.1-1.8-6.7-1.8-10.8v-70.9h-20.7v70.9c0,6,1.1,11.6,3.2,16.8
		c2.1,5.3,5.2,9.8,9.2,13.7c4,3.9,8.8,6.9,14.5,9.2c5.7,2.2,12.1,3.3,19.4,3.3C206,413.2,212.5,412.1,218.2,409.8"/>
	<path d="M79.4,410.8l25.3-48.6c1.5-2.8,2.8-5.4,4-7.8c1.2-2.4,2.3-4.9,3.3-7.3c1.1-2.4,2.1-4.8,3.1-7.3c1-2.5,2.1-5.1,3.3-7.9h0.6
		c-0.2,3-0.4,5.8-0.6,8.4c-0.2,2.6-0.4,5.1-0.5,7.6c-0.1,2.4-0.2,5-0.2,7.6c-0.1,2.6-0.1,5.4-0.1,8.4v47h20.7V299.2h-23.1
		l-21.7,42.4c-1.5,2.9-2.8,5.5-4.1,8c-1.2,2.4-2.4,4.8-3.5,7.2c-1.1,2.3-2.2,4.7-3.3,7.2c-1.1,2.4-2.2,5.1-3.3,7.8
		c-1.2-2.8-2.3-5.4-3.3-7.8c-1.1-2.4-2.2-4.8-3.3-7.2c-1.1-2.3-2.3-4.7-3.5-7.2c-1.2-2.4-2.6-5.1-4.1-8l-21.7-42.4H20.5v111.6h20.7
		v-47c0-3,0-5.8-0.1-8.4c-0.1-2.6-0.1-5.1-0.2-7.6c-0.1-2.4-0.3-5-0.5-7.6c-0.2-2.6-0.4-5.4-0.6-8.4h0.6c1.1,2.8,2.1,5.4,3.2,7.9
		c1.1,2.5,2.1,4.9,3.2,7.3c1.1,2.4,2.2,4.8,3.3,7.3c1.2,2.4,2.5,5.1,4,7.8L79.4,410.8z"/>
</g>
<rect x="366" y="299.2" width="20.7" height="111.6"/>
</svg>
