<?xml version="1.0" encoding="utf-8"?>
<!-- Generator: Adobe Illustrator 23.0.3, SVG Export Plug-In . SVG Version: 6.00 Build 0)  -->
<svg version="1.1" id="logosvg_x5F_com" xmlns="http://www.w3.org/2000/svg" xmlns:xlink="http://www.w3.org/1999/xlink" x="0px"
	 y="0px" viewBox="0 0 400 300" style="enable-background:new 0 0 400 300;" xml:space="preserve">
<style type="text/css">
	.st0{fill:#010101;}
</style>
<path id="logosvg_x5F_com_1_" class="st0" d="M134.3141,38.6499l5.7493-2.9428l-1.0485-6.145l4.4989,4.4201l5.796-2.9145
	l-2.882,5.7879l4.669,4.4616l-6.396-0.9938l-2.8651,5.6767l-1.0325-6.3275L134.3141,38.6499z M280.4849,209.3383l-5.0303-10.389
	l-7.6938-7.8015l-19.36-42.4443l-8.6234-2.6283l-2.4941,2.7981h-1.5173l-4.3275-11.4061l-4.3272-7.6746l-5.9757-9.6257
	l-8.4541-25.1443l-8.2439-8.0984v26.6702l-6.8483,18.6993l9.3004,5.9363l-15.8526,42.6983l3.0432,2.6286l-8.2433,18.6145
	l10.3148,11.1942h15.5563l-2.6631-6.7836l23.5043,8.6498h26.6732l-5.6223-9.7107l-2.9171-7.6311l-1.1415-5.7676l13.8654,17.2158
	h17.0779V209.3383z M92.6234,148.7238c0,16.2375,3.6054,31.6299,10.0575,45.4157l40.7338-46.8727l3.519-1.144l15.6926-22.1333
	l6.8483-5.9144l10.2716-16.1226l6.1824-5.9149l9.9863-14.0236l6.2775-4.7701l11.6987,8.3953l5.8013,10.7801l7.4193,22.1331
	l8.6547,15.3589l18.1653,8.1092l16.454,33.6754l3.9947,13.4516l3.8997,2.8613l3.4238,4.0073l6.3565,12.0952
	c11.3206-16.9911,17.9235-37.4166,17.9235-59.3874c0-59.0976-47.7619-107.0047-106.6805-107.0047
	C140.3855,41.7191,92.6234,89.6263,92.6234,148.7238z M158.4653,202.8504h1.9969l6.5627-7.8231l2.6631-12.2111l2.6644-6.933
	l-1.205-2.0356l-10.2732,18.5719L158.4653,202.8504z M82.8462,200.2984l2.7737,5.6928l1.2944-6.2985l6.5039-0.7618l-5.6862-3.0267
	l1.2156-6.2036l-4.7308,4.3969l-5.7933-2.9857l2.7721,5.7344l-4.668,4.2409L82.8462,200.2984z M161.4116,36.5199l3.946-5.0425
	l6.0865,2.1703l-3.7148-5.3043l3.9314-5.0695l-6.2283,1.7392l-3.5594-5.1661l-0.1691,6.2311l-6.2258,1.7814l6.1641,2.2369
	L161.4116,36.5199z M132.953,169.9728l-11.1505,18.3943l0.3817,0.5895l12.1956-17.2665l4.2794-3.3393l7.894-15.8993l-7.2281,7.5999
	L132.953,169.9728z M183.1624,31.8844l4.8524-4.2147l5.5488,3.2749l-2.5876-5.87l4.8227-4.2969l-6.4578,0.5803l-2.45-5.76
	l-1.4336,6.1066l-6.426,0.607l5.6088,3.329L183.1624,31.8844z M173.9381,134.5412l-6.4052,8.0773l-1.5855,0.5728l-11.6029,17.6177
	l1.6476,1.717l-11.9842,26.714l8.0533-8.3318l4.5019-7.7602l2.6639-3.8165l2.4728-0.6357l7.545-14.3743l0.8878-9.3492l4.1221-9.2221
	L173.9381,134.5412z M308.9464,103.1522l5.3324,3.6334l-1.9722,6.0369l5.2538-3.8539l5.3948,3.6461l-2.0791-5.9937l5.1308-3.7295
	l-6.366,0.1516l-2.0806-6.0232l-2.0345,6.0629L308.9464,103.1522z M322.7148,125.4149l-6.4271-1.1602l4.4846,4.5588l-3.0991,5.5525
	l5.8892-2.8172l4.6075,4.6152l-0.8633-6.2736l5.7488-2.7204l-6.2892-1.0646l-0.8482-6.2576L322.7148,125.4149z M304.843,85.7284
	l-0.7253,6.2717l4.3477-4.7651l6.0406,2.5962l-3.2198-5.4982l4.2972-4.6138l-6.1936,1.3117l-3.2206-5.5109l-0.8182,6.3542
	l-6.427,1.2717L304.843,85.7284z M228.5545,33.6477l6.0878-2.1703l3.9445,5.0425l-0.2294-6.4235l6.1639-2.2369l-6.2251-1.7814
	l-0.1697-6.2311l-3.5599,5.1661l-6.2277-1.7392l3.931,5.0695L228.5545,33.6477z M324.7931,154.903l3.6195,5.3763l0.3716-6.3026
	l6.1793-1.5732l-5.9194-2.209l0.3397-6.34l-4.206,4.8887l-6.1033-2.349l3.5291,5.3181l-4.146,4.8804L324.7931,154.903z
	 M255.2984,40.3235l2.8651,5.6767l1.0323-6.3275l6.4896-1.0228l-5.7491-2.9428l1.0482-6.145l-4.4989,4.4201l-5.7958-2.9145
	l2.8815,5.7879l-4.6687,4.4616L255.2984,40.3235z M284.394,66.1353l6.3184,1.435l0.4783,6.2733l3.3749-5.4698l6.4108,1.3936
	l-4.2075-4.7795l3.3136-5.3326l-5.8394,2.4603l-4.2396-4.8217l0.4323,6.3837L284.394,66.1353z M274.3771,51.5093l1.695,6.105
	l2.2492-6.0091l6.5985,0.1667l-5.0706-3.9091l2.2033-5.8575l-5.2863,3.4946l-5.087-3.9372l1.6807,6.1887l-5.4413,3.5381
	L274.3771,51.5093z M206.4359,30.9446l5.5486-3.2749l4.853,4.2147l-1.4783-6.2438l5.6092-3.329l-6.4263-0.607l-1.4335-6.1066
	l-2.4498,5.76l-6.4572-0.5803l4.822,4.2969L206.4359,30.9446z M146.3809,277.9012h5.6046v-2.6362h-5.6046v-3.2111h6.4602v-2.6942
	h-9.5417v14.8229h9.562v-2.7144h-6.4805V277.9012z M327.8329,167.3782l-5.101,4.0209l-5.533-3.4262l2.4349,5.8699l-5.009,3.9926
	l6.5652-0.4423l2.5121,5.9521l1.5561-6.1151l6.3976-0.4034l-5.41-3.2754L327.8329,167.3782z M230.8195,271.242
	c1.4493,1.3888,2.166,3.2303,2.1659,5.5287c0,2.2993-0.7166,4.1461-2.1659,5.55c-1.4511,1.3871-3.3004,2.0814-5.547,2.0814
	c-2.2664,0-4.1167-0.6943-5.5676-2.0814c-1.4506-1.4042-2.1648-3.2507-2.1648-5.55c0-2.2985,0.7145-4.1399,2.1648-5.5287
	c1.4509-1.4077,3.3012-2.1003,5.5676-2.1003C227.5191,269.1418,229.3684,269.8344,230.8195,271.242z M229.8438,276.7707
	c0-1.5262-0.4178-2.7136-1.2717-3.587c-0.8351-0.8927-1.9313-1.3275-3.2996-1.3275c-1.3718,0-2.482,0.4348-3.3406,1.3275
	c-0.8527,0.8735-1.27,2.0609-1.27,3.587c0,1.5078,0.4173,2.6977,1.27,3.5887c0.8586,0.8911,1.9689,1.327,3.3406,1.327
	c1.3685,0,2.4644-0.4359,3.2996-1.327C229.4259,279.4687,229.8438,278.2785,229.8438,276.7707z M164.1591,272.054h4.9913v12.1287
	h3.058V272.054h4.9699v-2.6942h-13.0192V272.054z M202.3254,278.9936l-3.1808-9.6337h-2.5249l-3.1576,9.6337l-3.183-9.6337h-3.3401
	l5.1882,14.8261h2.6072l3.159-9.3973l3.1579,9.3973h2.5843l5.1904-14.8261h-3.3403L202.3254,278.9936z M321.5757,191.1118
	l-5.7932,2.9857l-4.7314-4.3969l1.2163,6.2036l-5.6859,3.0267l6.5032,0.7618l1.2941,6.2985l2.7739-5.6928l6.319,0.7888
	l-4.6683-4.2409L321.5757,191.1118z M253.0781,278.3549l3.1606,5.831h-3.4575l-2.9028-5.3338h-2.4844v5.3338h-3.0828v-14.8261
	h6.3611c1.4495,0,2.6053,0.4149,3.481,1.27c0.873,0.8319,1.3102,2.0007,1.3102,3.4875
	C255.4634,276.1577,254.5892,277.624,253.0781,278.3549z M252.3439,274.1176c0-1.3302-0.8351-2.0625-2.0504-2.0625h-2.9203v4.0826
	h2.9203C251.5087,276.1377,252.3439,275.3833,252.3439,274.1176z M279.8393,269.3598h-3.9355l-5.0493,6.1226v-6.1226h-3.0782
	v14.8261h3.0782v-4.1048l1.8287-2.201l4.1364,6.3058h3.6179l-5.7055-8.7638L279.8393,269.3598z M121.6779,51.6052l2.2495,6.0091
	l1.6952-6.105l6.458-0.2198l-5.4413-3.5381l1.6812-6.1887l-5.0872,3.9372l-5.2868-3.4946l2.2036,5.8575l-5.0701,3.9091
	L121.6779,51.6052z M77.0433,112.6147l5.3952-3.6461l5.2548,3.8539l-1.9732-6.0369l5.3326-3.6334l-6.5793-0.0694l-2.0349-6.0629
	l-2.0801,6.0232l-6.3665-0.1516l5.1318,3.7295L77.0433,112.6147z M127.5402,278.5528l-6.5403-9.193h-2.6043v14.8261h3.0818v-9.1786
	l6.5212,9.1786h2.6035v-14.8261h-3.0618L127.5402,278.5528L127.5402,278.5528z M105.4336,68.3738l3.3748,5.4698l0.478-6.2733
	l6.3189-1.435l-6.0421-2.4578l0.4321-6.3837l-4.2394,4.8217l-5.8395-2.4603l3.3134,5.3326l-4.207,4.7795L105.4336,68.3738z
	 M71.8297,136.164l4.6078-4.6152l5.8875,2.8172l-3.0981-5.5525l4.4843-4.5588l-6.4275,1.1602l-3.2032-5.567l-0.8477,6.2576
	l-6.2888,1.0646l5.7491,2.7204L71.8297,136.164z M85.4932,89.8311l6.0409-2.5962L95.8816,92l-0.7261-6.2717l5.9191-2.5824
	l-6.4258-1.2717L93.83,75.52l-3.2203,5.5109l-6.1947-1.3117l4.2985,4.6138L85.4932,89.8311z M299.0042,248.1079
	c-1.162,2.8985-1.9087,5.08-1.9087,6.7012c0,1.646,0.8093,2.2944,2.0696,2.2944c1.0433,0,2.0965-0.4697,3.1322-1.2368
	c1.6531-1.2209,3.2624-3.2032,4.7273-5.2703l1.0441,1.0049c-1.5842,2.2452-3.4518,4.6652-5.7714,6.2742
	c-1.5993,1.1094-3.4105,1.8369-5.5022,1.8369c-2.9659,0-5.1135-1.774-5.1135-5.3036c0-1.1591,0.2734-2.6285,0.7086-3.8416
	c-1.8939,2.6245-5.5122,6.0286-9.0432,6.0286c-2.3578,0-3.4302-1.473-3.4302-3.3989c0-1.0991,0.4799-2.784,1.0648-4.1812
	c0.6624-1.5767,1.6085-3.5811,2.881-6.2029c1.4093-2.9077,2.8993-5.7794,2.8993-6.8211c0-0.548-0.2848-0.9142-0.8373-0.9142
	c-2.5883,0-5.3834,3.7601-8.1531,10.0138l-4.8922,11.0814h-6.1382l1.8803-4.2614c-2.2291,2.6494-4.4918,4.7729-7.4265,4.7729
	c-2.5333,0-3.0828-1.7203-3.0828-3.5148c0-0.4888,0.1355-1.4109,0.2737-2.0609h-0.0751c-2.3969,3.2624-5.8034,5.59-8.2854,5.59
	c-2.4753,0-3.6649-1.5348-3.6649-3.7137c0-0.9949,0.4068-2.4847,1.0851-4.0748c0.9194-2.1541,2.1583-4.7386,3.2712-7.0629
	l0.9661-2.0963c-0.9418,0.4839-1.849,0.6362-2.6169,0.6362c-0.8163,0-1.4655-0.1625-1.9835-0.4219
	c-0.1638,1.7634-0.7555,4.0916-1.9823,6.8219c-2.733,6.0823-7.2336,9.9315-12.7898,9.9315c-4.6891,0-6.4869-2.7503-6.7117-5.9341
	l-0.0138-0.8589c-3.024,4.0109-5.7341,6.6702-9.2588,6.6702c-2.7093,0-3.684-1.5769-3.684-3.332
	c0-1.1002,0.4422-2.5251,0.8943-3.5153l5.4359-11.5875c0.4686-1.0276,0.5847-1.6398,0.5847-2.0067
	c0-0.6621-0.2592-0.9752-0.8651-0.9752c-2.0051,0-4.7038,2.7098-7.1426,8.1874l-5.6734,12.79l-6.2161,0.0159l8.1221-18.3262
	c0.3522-0.823,0.498-1.4435,0.498-1.7809c0-0.5615-0.3223-0.8182-0.8025-0.8182c-1.6226,0-4.9089,2.8826-7.3304,8.354
	l-5.5389,12.5711h-6.0707l1.8593-4.2188c-2.517,3.0694-4.585,4.642-7.0888,4.642c-2.2823,0-3.3992-1.6487-3.3992-3.623
	c0-0.3906,0.0591-1.0759,0.1171-1.3917c-1.6185,2.0085-4.5639,5.0164-7.7758,5.0164c-3.0432,0-4.5561-1.8342-4.5175-4.7386
	c0.0468-3.4775,2.045-7.7126,5.0275-11.7673c-1.2557,0.7761-2.6826,1.3945-3.9515,1.3945c-1.5885,0-2.2155-0.7871-2.2155-1.9376
	c0-1.1256,0.8891-2.3257,0.8891-2.7816c0-0.1644-0.0839-0.2483-0.2745-0.2483c-0.5912,0-2.7919,2.2202-4.6873,6.5009
	l-5.8069,13.1528h-5.9282l1.8876-4.2899c-2.3351,2.8955-5.2396,4.7132-7.4125,4.7132c-2.4575,0-3.2672-1.466-3.2672-3.4926
	c0-0.2529,0.1528-0.9928,0.1906-1.2031c-1.6169,2.0085-4.3237,4.6973-7.7124,4.6973c-3.0437,0-4.554-1.8341-4.5126-4.7386
	c0.0488-3.6246,2.211-8.069,5.4018-12.2717c2.9268-3.8621,8.3826-7.6349,13.9796-7.6349c3.7919,0,6.7733,0.6519,6.3112,1.704
	l-6.2083,14.0873c-0.5677,1.2274-1.5715,3.5504-1.5715,4.4897c0,0.6058,0.2734,0.8514,0.7482,0.8514
	c2.0361,0,5.709-5.1996,7.9502-10.1749l4.6824-10.5615h5.4326l-1.6417,3.8951c1.9462-2.2075,4.5602-4.3448,6.7914-4.3448
	c1.1523,0,1.6061,0.5615,1.6061,1.3972c0,1.8361-2.0682,4.2565-2.0682,5.1254c0,0.2454,0.1711,0.454,0.5536,0.454
	c0.7871,0,2.3122-0.8627,4.3685-2.5586c2.9471-2.4267,6.9247-4.3642,10.8201-4.3642c3.793,0,6.7773,0.6519,6.3147,1.704
	l-6.2092,14.0873c-0.4205,0.9623-1.4678,3.2999-1.4678,4.2762c0,0.6063,0.2712,0.8497,0.7474,0.8497
	c2.038,0,5.611-4.9845,7.8514-9.9598l4.6924-10.5593h5.598l-1.6439,3.955c2.4777-2.8547,5.184-4.4069,7.8193-4.4069
	c2.1252,0,3.112,1.0622,3.112,3.0667c0,0.4972-0.0402,0.942-0.123,1.327c2.4669-2.7514,5.6115-4.3936,8.4887-4.3936
	c2.0741,0,3.3503,1.3043,3.3503,3.1306c0,1.6951-0.7717,3.4249-1.879,6.0439l-3.9725,8.4585
	c-0.2289,0.4907-0.8179,1.8012-0.8179,2.4688c0,0.5979,0.2816,0.8694,0.7372,0.8694c1.7789,0,4.0743-2.7846,6.2448-6.3422
	c0.9553-3.0135,2.0317-5.6315,3.6114-8.0436c2.3697-3.6079,5.9792-6.6054,11.043-6.6054c3.6632,0,6.1128,2.0741,6.4705,5.9611
	c0.2872,0.4514,0.8168,0.9121,1.9834,0.9121c2.3986,0,3.9547-2.0839,4.8361-3.8322l0.0038,0.0011l1.1979-2.6002h6.1371
	l-5.3079,11.5411l-0.0087-0.0022l-2.5692,5.6232c-0.3536,0.8235-0.8093,1.9238-0.8093,2.5416c0,0.619,0.3261,0.8716,0.8268,0.8716
	c2.4577,0,6.291-5.8737,7.8298-9.3506l4.903-11.2247h6.1384l-5.045,11.541c0,0-2.7864,6.4515-2.9965,6.9312
	c-0.2095,0.4786-0.3398,1.0273-0.3398,1.29c0,0.4872,0.2068,0.7871,0.6972,0.7871c2.3605,0,6.1776-6.2067,8.0283-9.9598
	l4.6625-10.5593h5.7289l-1.5051,3.6513c2.3187-2.4118,4.8295-4.1032,7.6276-4.1032c2.478,0,3.7471,1.5245,3.7471,3.5269
	c0,1.9918-2.022,5.9924-3.2753,8.5402c-0.8657,1.7662-2.025,4.1528-2.7457,5.835c-0.5911,1.3702-0.722,1.8812-0.722,2.3519
	c0,0.5015,0.3002,0.725,0.7825,0.725c2.2736,0,6.2545-5.4126,8.7632-10.904l3.5137-7.8096h-2.916l0.8441-1.8137h2.845l2.3592-5.3443
	l1.3961-3.16h6.058l-3.7474,8.5044h3.9625l-0.8063,1.8136h-3.9809c-0.2489,0.5952-1.5413,3.5196-2.882,6.5374
	C300.715,244.2668,299.0654,247.9675,299.0042,248.1079z M145.6353,242.4623l3.8573-8.5813c-3.0294,0-5.8729,2.16-8.032,5.0854
	c-3.1174,4.2225-5.5862,9.4982-5.6291,12.4969c0.0219,1.1372,0.6087,1.4298,1.486,1.4298
	C139.6286,252.8932,142.776,248.9492,145.6353,242.4623z M183.4185,242.4623h-0.0092l3.8572-8.5813
	c-3.0286,0-5.8723,2.16-8.0306,5.0854c-3.1166,4.2225-5.5851,9.4982-5.6277,12.4969c0.0192,1.1372,0.6105,1.4298,1.4873,1.4298
	C177.5114,252.8932,180.5146,249.0432,183.4185,242.4623z M242.2348,236.2005c0.0421-1.2476-0.3679-2.2433-1.5251-2.2433
	c-1.1731,0-2.2579,0.9064-3.83,3.0874c-3.4543,4.7894-5.9152,11.7076-6.2208,14.7043c-0.1711,1.707,0.2432,2.8737,1.6404,2.8737
	c1.0157,0,2.1894-0.5536,3.5576-2.4736C239.2389,247.3982,242.1263,239.4486,242.2348,236.2005z M145.5651,219.9962
	c0-10.9089-11.5629-16.1409-25.343-16.1409c-14.7062,0-28.1942,6.5174-33.1979,16.5884c-1.3229,2.6655-2.0607,5.5745-2.0607,8.6836
	c0,2.8088,0.6843,5.3338,2.0607,7.3709c2.1219,3.1423,5.9044,5.1165,11.4924,5.1165c6.8103,0,12.2388-3.7396,12.2388-10.2424
	c0,0,0.101-1.8275-2.0209-1.8275c-1.7413,0-2.1886,1.1964-2.1478,1.8275c0.248,5.1113-2.7665,9.1692-8.1802,9.1692
	c-6.0459,0-8.5856-5.1381-8.5856-10.6484c0-11.2612,8.4968-18.7225,17.3378-21.9196c4.5323-1.6533,8.1788-2.2485,12.9328-2.2485
	c10.0003,0,18.1791,3.8454,18.1791,14.1042c0,8.5956-7.2136,15.9069-15.8882,16.5178l0.3425-1.1821
	c1.7783-6.2974,3.9226-13.1838,7.4614-18.3087c0.2084-0.321,0.5776-0.8004,0.9814-1.3127l-0.4845-0.603
	c-0.6311,0.3644-1.7597,1.1877-2.2104,1.5389c-16.5981,12.9239-17.0989,49.1971-39.1979,49.1971
	c-0.8016,0-1.5494-0.0631-2.2509-0.1749c-4.6117-0.7423-7.0244-3.8387-7.0089-8.1416c0.0032-0.8457,0.2923-2.0118,0.2923-2.6739
	c0-1.1161-0.7577-2.2739-2.4153-2.2739c-1.9724,0-2.7816,1.5342-2.8186,3.7949c-0.1047,6.4639,4.6422,10.2019,11.9505,10.8751
	c0.7982,0.0748,1.6271,0.1123,2.4855,0.1123c17.2395-0.0005,27.8361-12.9957,32.3004-28.7822
	c2.0728-0.243,5.462-0.9205,6.7522-1.3882C136.5347,234.8018,145.5651,229.468,145.5651,219.9962z M71.5862,160.2794l3.62-5.3763
	l6.3359,1.6897l-4.1468-4.8804l3.5298-5.3181l-6.1041,2.349l-4.2058-4.8887l0.3395,6.34l-5.9192,2.209l6.1802,1.5732
	L71.5862,160.2794z M78.8083,177.393l6.5661,0.4423l-5.0096-3.9926l2.4357-5.8699l-5.5327,3.4262l-5.1016-4.0209l1.5876,6.1731
	l-5.4109,3.2754l6.3976,0.4034l1.5563,6.1151L78.8083,177.393z"/>
</svg>
